<svg id="Capa_1" enable-background="new 0 0 512 512" height="512" viewBox="0 0 512 512" width="512" xmlns="http://www.w3.org/2000/svg"><g><g><g><path d="m256 277.213h248.5v200.012h-248.5z" fill="#784033"/></g><g><path d="m478.236 277.213h26.264v200.012h-26.264z" fill="#61362b"/></g><g><path d="m504.5 228.726v56.569c-10.351 0-10.351-8.081-20.702-8.081-10.352 0-10.352 8.081-20.705 8.081-10.354 0-10.354-8.081-20.708-8.081-10.352 0-10.352 8.081-20.704 8.081-10.353 0-10.353-8.081-20.707-8.081s-10.354 8.081-20.707 8.081c-10.355 0-10.355-8.081-20.71-8.081s-10.355 8.081-20.71 8.081-10.355-8.081-20.71-8.081-10.355 8.081-20.711 8.081c-10.357 0-10.357-8.081-20.714-8.081s-10.357 8.081-20.714 8.081v-56.569z" fill="#9d6b6b"/></g><g><path d="m478.236 278.221c1.499-.613 3.278-1.007 5.562-1.007 10.351 0 10.351 8.081 20.702 8.081v-56.569h-26.264z" fill="#8b5e5e"/></g><g><g><circle cx="442.183" cy="336.5" fill="#9d6b6b" r="16.163"/></g></g><g><g><circle cx="388.331" cy="414.596" fill="#9d6b6b" r="16.163"/></g></g><g><g><circle cx="313.893" cy="338.52" fill="#9d6b6b" r="16.163"/></g></g></g><g><g><path d="m7.5 277.213h248.5v200.012h-248.5z" fill="#784033"/></g><g><path d="m229.736 277.213h26.264v200.012h-26.264z" fill="#61362b"/></g><g><path d="m256 228.726v56.569c-10.351 0-10.351-8.081-20.702-8.081-10.352 0-10.352 8.081-20.705 8.081-10.354 0-10.354-8.081-20.708-8.081-10.352 0-10.352 8.081-20.704 8.081-10.353 0-10.353-8.081-20.707-8.081s-10.354 8.081-20.707 8.081c-10.355 0-10.355-8.081-20.71-8.081s-10.355 8.081-20.71 8.081-10.355-8.081-20.71-8.081-10.355 8.081-20.711 8.081c-10.357 0-10.357-8.081-20.713-8.081s-10.357 8.081-20.713 8.081v-56.569z" fill="#9d6b6b"/></g><g><path d="m229.736 278.221c1.499-.613 3.278-1.007 5.562-1.007 10.351 0 10.351 8.081 20.702 8.081v-56.569h-26.264z" fill="#8b5e5e"/></g><g><g><circle cx="193.683" cy="336.5" fill="#9d6b6b" r="16.163"/></g></g><g><g><circle cx="139.831" cy="414.596" fill="#9d6b6b" r="16.163"/></g></g><g><g><circle cx="65.393" cy="338.52" fill="#9d6b6b" r="16.163"/></g></g></g><g><g><circle cx="256" cy="155.994" fill="#ffe07d" r="121.22"/></g><g><path d="m328.589 58.903c15.153 20.235 24.129 45.364 24.129 72.589 0 66.948-54.272 121.22-121.219 121.22-27.225 0-52.353-8.976-72.589-24.129 22.109 29.524 57.368 48.631 97.091 48.631 66.948 0 121.22-54.272 121.22-121.22-.001-39.723-19.108-74.982-48.632-97.091z" fill="#ffd064"/></g><g><g><path d="m256 77.201s-19.289 23.109-19.289 54.92c0 5.083.496 10.009 1.324 14.703-1.914-2.5-4.013-4.943-6.338-7.268-20.564-20.564-48.433-22.571-48.433-22.571s2.007 27.869 22.571 48.433c3.912 3.912 8.152 7.212 12.452 9.997-1.399-.104-2.817-.16-4.253-.16-23.177 0-40.013 14.467-40.013 14.467s16.836 14.467 40.013 14.467c2.739 0 5.414-.208 8.007-.564-5.258 10.308-3.012 23.068-3.012 23.068s16.07.808 26.522-9.644c5.551-5.551 8.841-13.054 10.448-17.682 1.607 4.627 4.897 12.131 10.448 17.682 10.452 10.452 26.522 9.644 26.522 9.644s2.246-12.759-3.012-23.068c2.593.356 5.267.564 8.007.564 23.177 0 40.013-14.467 40.013-14.467s-16.836-14.467-40.013-14.467c-1.436 0-2.854.056-4.253.16 4.3-2.784 8.54-6.084 12.452-9.997 20.564-20.564 22.571-48.433 22.571-48.433s-27.869 2.007-48.433 22.571c-2.325 2.325-4.424 4.768-6.338 7.268.827-4.694 1.324-9.62 1.324-14.703.002-31.811-19.287-54.92-19.287-54.92z" fill="#b3e59f"/></g></g></g><g><circle cx="376.209" cy="356.006" r="10.102"/><circle cx="311.559" cy="425.707" r="10.102"/><circle cx="451.972" cy="426.717" r="10.102"/><circle cx="127.709" cy="356.006" r="10.102"/><circle cx="63.059" cy="425.707" r="10.102"/><ellipse cx="203.472" cy="426.717" rx="10.102" ry="10.102" transform="matrix(.924 -.383 .383 .924 -147.809 110.347)"/><path d="m512 228.73c0-4.143-3.358-7.5-7.5-7.5h-53.5c-4.142 0-7.5 3.357-7.5 7.5s3.358 7.5 7.5 7.5h46v37.769c-2.836-2.044-6.886-4.289-13.2-4.289-7.753 0-12.092 3.386-14.963 5.626-2.225 1.735-3.146 2.454-5.747 2.454-2.594 0-3.513-.718-5.735-2.451-2.873-2.241-7.214-5.629-14.975-5.629-7.756 0-12.095 3.387-14.965 5.628-2.221 1.734-3.141 2.452-5.734 2.452s-3.514-.718-5.736-2.451c-2.872-2.242-7.213-5.629-14.974-5.629-7.756 0-12.094 3.387-14.965 5.628-2.221 1.734-3.141 2.452-5.735 2.452-2.601 0-3.522-.719-5.747-2.454-2.871-2.24-7.209-5.626-14.963-5.626-7.761 0-12.102 3.387-14.974 5.629-2.222 1.733-3.142 2.451-5.736 2.451-2.601 0-3.522-.719-5.747-2.454-2.871-2.24-7.209-5.626-14.963-5.626-.721 0-1.404.038-2.068.093 15.701-8.321 29.483-19.793 40.499-33.572h59.428c4.142 0 7.5-3.357 7.5-7.5s-3.358-7.5-7.5-7.5h-49.08c11.303-19.143 17.8-41.445 17.8-65.24 0-70.977-57.743-128.721-128.72-128.721-37.051 0-72.321 15.984-96.768 43.855-2.731 3.113-2.421 7.853.692 10.584 3.114 2.729 7.853 2.42 10.584-.693 21.599-24.624 52.76-38.746 85.492-38.746 62.706 0 113.72 51.015 113.72 113.721 0 62.705-51.015 113.72-113.72 113.72s-113.72-51.015-113.72-113.72c0-16.595 3.493-32.579 10.38-47.509 1.735-3.761.093-8.217-3.668-9.952-3.762-1.732-8.217-.093-9.952 3.669-7.804 16.913-11.76 35.012-11.76 53.792 0 23.795 6.498 46.097 17.8 65.24h-137.58c-4.142 0-7.5 3.357-7.5 7.5v248.5c0 4.143 3.358 7.5 7.5 7.5h56.56c4.142 0 7.5-3.357 7.5-7.5s-3.358-7.5-7.5-7.5h-49.06v-178.172c3.359-1.191 5.699-3.012 7.474-4.398 2.222-1.733 3.142-2.451 5.736-2.451 2.601 0 3.522.719 5.748 2.454 2.873 2.24 7.213 5.626 14.973 5.626 7.753 0 12.092-3.386 14.963-5.626 2.225-1.735 3.146-2.454 5.747-2.454 2.594 0 3.514.718 5.736 2.451 2.872 2.241 7.213 5.629 14.974 5.629 7.754 0 12.092-3.386 14.963-5.626 2.225-1.735 3.146-2.454 5.747-2.454 2.594 0 3.514.718 5.735 2.451 2.873 2.241 7.213 5.629 14.975 5.629 7.756 0 12.094-3.387 14.965-5.628 2.221-1.734 3.141-2.452 5.735-2.452 2.601 0 3.522.719 5.747 2.454 2.871 2.24 7.209 5.626 14.963 5.626 7.756 0 12.094-3.387 14.965-5.628 2.221-1.734 3.141-2.452 5.735-2.452 2.602 0 3.522.719 5.747 2.454 2.871 2.24 7.209 5.626 14.963 5.626 7.761 0 12.103-3.388 14.975-5.629 2.222-1.733 3.141-2.451 5.735-2.451s3.514.718 5.735 2.452c1.774 1.385 4.111 3.205 7.465 4.395v178.173h-149.441c-4.142 0-7.5 3.357-7.5 7.5s3.358 7.5 7.5 7.5l405.44-.005c4.142 0 7.5-3.357 7.5-7.5zm-333.085 46.608c-2.221 1.734-3.141 2.452-5.734 2.452s-3.514-.718-5.736-2.451c-2.872-2.242-7.213-5.629-14.974-5.629-7.756 0-12.094 3.387-14.965 5.628-2.221 1.734-3.141 2.452-5.735 2.452-2.601 0-3.522-.719-5.747-2.454-2.871-2.24-7.209-5.626-14.963-5.626-7.761 0-12.102 3.387-14.974 5.629-2.222 1.733-3.142 2.451-5.736 2.451-2.601 0-3.522-.719-5.747-2.454-2.871-2.24-7.209-5.626-14.963-5.626-7.761 0-12.103 3.388-14.975 5.629-2.222 1.733-3.141 2.451-5.735 2.451-2.602 0-3.522-.719-5.748-2.454-2.873-2.24-7.213-5.626-14.972-5.626-6.322 0-10.373 2.25-13.21 4.296v-37.776h140.428c11.015 13.778 24.796 25.25 40.496 33.57-.657-.054-1.331-.091-2.044-.091-7.757.001-12.096 3.388-14.966 5.629zm84.585 194.388v-178.167c3.359-1.191 5.699-3.012 7.474-4.398 2.222-1.733 3.142-2.451 5.736-2.451 2.601 0 3.522.719 5.748 2.454 2.873 2.24 7.213 5.626 14.973 5.626 7.753 0 12.092-3.386 14.963-5.626 2.225-1.735 3.146-2.454 5.747-2.454 2.594 0 3.514.718 5.736 2.451 2.872 2.241 7.213 5.629 14.974 5.629 7.754 0 12.092-3.386 14.963-5.626 2.225-1.735 3.146-2.454 5.747-2.454 2.594 0 3.514.718 5.735 2.451 2.873 2.241 7.213 5.629 14.975 5.629 7.756 0 12.094-3.387 14.965-5.628 2.221-1.734 3.141-2.452 5.735-2.452 2.601 0 3.522.719 5.747 2.454 2.871 2.24 7.209 5.626 14.963 5.626 7.756 0 12.094-3.387 14.965-5.628 2.221-1.734 3.141-2.452 5.735-2.452 2.602 0 3.522.719 5.747 2.454 2.871 2.24 7.209 5.626 14.963 5.626 7.761 0 12.103-3.388 14.975-5.629 2.222-1.733 3.141-2.451 5.735-2.451s3.514.718 5.735 2.452c1.774 1.385 4.111 3.205 7.465 4.395v178.168h-233.501z"/><path d="m442.183 312.837c-13.047 0-23.663 10.615-23.663 23.663 0 13.047 10.615 23.662 23.663 23.662s23.663-10.615 23.663-23.662c0-13.048-10.616-23.663-23.663-23.663zm0 32.325c-4.776 0-8.663-3.886-8.663-8.662s3.886-8.663 8.663-8.663 8.663 3.887 8.663 8.663-3.887 8.662-8.663 8.662z"/><path d="m388.331 390.933c-13.047 0-23.663 10.615-23.663 23.663 0 13.047 10.615 23.662 23.663 23.662s23.663-10.615 23.663-23.662c0-13.048-10.615-23.663-23.663-23.663zm0 32.325c-4.776 0-8.663-3.886-8.663-8.662s3.886-8.663 8.663-8.663 8.663 3.887 8.663 8.663-3.886 8.662-8.663 8.662z"/><path d="m313.893 314.857c-13.047 0-23.663 10.615-23.663 23.663 0 13.047 10.615 23.662 23.663 23.662s23.663-10.615 23.663-23.662c-.001-13.047-10.616-23.663-23.663-23.663zm0 32.326c-4.776 0-8.663-3.886-8.663-8.662s3.886-8.663 8.663-8.663 8.663 3.887 8.663 8.663-3.887 8.662-8.663 8.662z"/><path d="m193.683 312.837c-13.047 0-23.663 10.615-23.663 23.663 0 13.047 10.615 23.662 23.663 23.662s23.663-10.615 23.663-23.662c0-13.048-10.616-23.663-23.663-23.663zm0 32.325c-4.776 0-8.663-3.886-8.663-8.662s3.886-8.663 8.663-8.663 8.663 3.887 8.663 8.663-3.887 8.662-8.663 8.662z"/><path d="m139.831 438.258c13.048 0 23.663-10.615 23.663-23.662 0-13.048-10.615-23.663-23.663-23.663-13.047 0-23.663 10.615-23.663 23.663 0 13.047 10.616 23.662 23.663 23.662zm0-32.325c4.777 0 8.663 3.887 8.663 8.663s-3.886 8.662-8.663 8.662c-4.776 0-8.663-3.886-8.663-8.662s3.887-8.663 8.663-8.663z"/><path d="m65.393 314.857c-13.047 0-23.663 10.615-23.663 23.663 0 13.047 10.615 23.662 23.663 23.662s23.663-10.615 23.663-23.662c-.001-13.047-10.616-23.663-23.663-23.663zm0 32.326c-4.776 0-8.663-3.886-8.663-8.662s3.886-8.663 8.663-8.663 8.663 3.887 8.663 8.663-3.887 8.662-8.663 8.662z"/><path d="m166.522 189.721c0 2.187.954 4.264 2.612 5.688.75.645 18.127 15.338 42.57 16.234-1.371 8.254-.25 15.271-.061 16.348.606 3.445 3.515 6.014 7.009 6.189.101.006.495.022 1.131.022 4.049 0 17.91-.705 28.716-9.71v10.293c0 4.143 3.358 7.5 7.5 7.5s7.5-3.357 7.5-7.5v-10.29c12.505 10.421 29.105 9.729 29.848 9.685 3.494-.176 6.403-2.744 7.009-6.189.189-1.077 1.31-8.094-.061-16.348 24.443-.896 41.82-15.59 42.57-16.234 1.658-1.425 2.612-3.502 2.612-5.688s-.954-4.264-2.612-5.688c-.615-.528-12.43-10.52-30.156-14.582 21.133-22.124 23.418-50.699 23.506-51.927.157-2.171-.638-4.304-2.177-5.843-1.54-1.539-3.674-2.334-5.842-2.177-1.112.08-24.659 1.964-45.529 18.021-1.673-31.726-20.09-54.148-20.91-55.13-1.425-1.707-3.534-2.694-5.758-2.694s-4.333.987-5.758 2.694c-.82.981-19.237 23.404-20.91 55.13-20.869-16.058-44.417-17.941-45.529-18.021-2.175-.155-4.303.638-5.842 2.177s-2.334 3.672-2.177 5.843c.088 1.228 2.374 29.803 23.506 51.927-17.727 4.062-29.541 14.054-30.156 14.582-1.657 1.424-2.611 3.501-2.611 5.688zm47.513-6.967c1.214 0 2.457.047 3.694.14 3.425.246 6.574-1.84 7.667-5.088s-.155-6.824-3.032-8.688c-4.179-2.705-7.956-5.734-11.225-9.005-11.083-11.082-16.22-24.743-18.55-33.804 9.065 2.33 22.724 7.469 33.805 18.549 1.958 1.958 3.871 4.153 5.686 6.524 2.101 2.746 5.807 3.702 8.972 2.308 3.165-1.39 4.97-4.764 4.37-8.168-.803-4.554-1.21-9.062-1.21-13.401 0-17.706 6.686-32.649 11.807-41.497 5.114 8.808 11.771 23.693 11.771 41.497 0 4.339-.407 8.848-1.21 13.401-.6 3.404 1.205 6.778 4.37 8.168 3.166 1.392 6.87.438 8.972-2.308 1.815-2.371 3.728-4.566 5.685-6.523 11.083-11.083 24.744-16.221 33.805-18.551-2.331 9.065-7.469 22.725-18.549 33.805-3.27 3.271-7.046 6.3-11.225 9.005-2.877 1.863-4.125 5.439-3.032 8.688 1.093 3.248 4.253 5.341 7.667 5.088 1.237-.093 2.48-.14 3.694-.14 10.699 0 19.983 3.604 26.315 6.966-6.334 3.364-15.617 6.967-26.315 6.967-2.252 0-4.603-.166-6.985-.493-2.772-.39-5.517.808-7.135 3.085s-1.837 5.265-.568 7.753c1.907 3.738 2.525 8.054 2.647 11.561-4.35-.802-9.969-2.645-14.173-6.85-4.682-4.682-7.439-11.306-8.667-14.838-1.048-3.017-3.891-5.039-7.084-5.039s-6.037 2.022-7.084 5.039c-1.228 3.532-3.985 10.156-8.667 14.839-4.206 4.206-9.828 6.048-14.172 6.851.122-3.51.74-7.825 2.647-11.562 1.269-2.488 1.05-5.476-.568-7.753-1.418-1.995-3.706-3.155-6.112-3.155-.339 0-.681.022-1.023.07-2.382.327-4.732.493-6.985.493-10.721 0-20.021-3.619-26.354-6.986 6.296-3.358 15.557-6.948 26.351-6.948z"/></g></g></svg>