<?xml version="1.0" standalone="no"?>
<!DOCTYPE svg PUBLIC "-//W3C//DTD SVG 20010904//EN"
 "http://www.w3.org/TR/2001/REC-SVG-20010904/DTD/svg10.dtd">
<svg version="1.0" xmlns="http://www.w3.org/2000/svg"
 width="512.000000pt" height="512.000000pt" viewBox="0 0 512.000000 512.000000"
 preserveAspectRatio="xMidYMid meet">
<metadata>
Created by potrace 1.11, written by Peter Selinger 2001-2013
</metadata>
<g transform="translate(0.000000,512.000000) scale(0.100000,-0.100000)"
fill="#000000" stroke="none">
<path d="M2390 4833 c-291 -44 -559 -179 -747 -376 -70 -72 -80 -110 -43 -147
38 -38 74 -27 143 43 261 265 635 390 993 332 500 -81 886 -477 953 -978 70
-516 -233 -1022 -724 -1211 -390 -150 -834 -70 -1151 206 -366 319 -491 828
-313 1278 35 89 34 120 -7 147 -31 20 -68 10 -96 -27 -29 -40 -84 -215 -103
-329 -25 -150 -17 -379 19 -516 29 -112 54 -178 103 -277 l33 -67 -701 -3
-701 -3 -24 -28 -24 -28 0 -1258 0 -1258 21 -27 21 -26 321 2 322 3 19 38 c18
38 18 39 -1 65 l-20 27 -267 3 -266 2 0 889 0 888 55 37 c30 20 64 36 76 36
11 0 48 -17 82 -38 54 -33 68 -37 127 -37 59 0 73 4 127 37 34 21 71 38 82 38
12 0 44 -15 72 -34 87 -60 187 -59 273 4 47 35 83 38 119 10 95 -75 208 -77
301 -6 46 34 67 33 135 -9 98 -61 190 -57 281 10 44 33 77 32 126 -5 86 -62
182 -64 275 -5 65 43 84 43 135 5 21 -16 45 -30 52 -30 9 0 12 -185 12 -888
l0 -889 -137 -6 c-75 -4 -418 -7 -763 -7 -584 0 -628 -1 -643 -17 -27 -31 -26
-74 3 -103 20 -20 33 -20 2079 -20 l2060 0 20 26 c21 27 21 27 21 1285 l0
1258 -24 28 -24 28 -297 0 -297 0 -19 -24 c-25 -30 -24 -76 1 -101 19 -19 33
-20 265 -20 l245 0 0 -189 0 -189 -37 19 c-54 28 -137 25 -193 -5 -25 -13 -60
-32 -77 -42 -37 -20 -23 -24 -143 42 -67 38 -147 31 -228 -19 -33 -20 -68 -37
-78 -37 -10 0 -42 17 -72 38 -51 35 -59 37 -132 37 -73 0 -81 -2 -132 -37 -30
-21 -62 -38 -72 -38 -10 0 -45 17 -78 37 -49 30 -72 38 -122 41 -62 4 -83 -4
-183 -63 -34 -21 -45 -18 -130 36 -18 11 -54 24 -80 28 l-48 6 58 34 c83 47
190 135 274 224 l73 77 310 0 c297 0 311 1 330 20 25 25 26 71 1 101 -19 24
-20 24 -280 27 l-261 3 34 67 c48 99 73 165 102 277 36 138 44 366 19 516 -90
538 -510 961 -1049 1054 -81 14 -317 19 -386 8z m-758 -2159 c84 -87 185 -168
273 -220 27 -16 43 -30 35 -31 -68 -9 -95 -18 -139 -48 -28 -19 -58 -35 -67
-35 -9 0 -43 17 -77 38 -55 34 -67 37 -132 37 -65 0 -77 -3 -132 -37 -34 -21
-69 -38 -79 -38 -10 0 -42 17 -72 38 -51 35 -59 37 -132 37 -73 0 -81 -2 -132
-37 -30 -21 -62 -38 -72 -38 -10 0 -45 17 -78 37 -81 50 -161 57 -228 19 -120
-66 -106 -62 -143 -42 -17 10 -52 29 -77 42 -56 30 -134 32 -190 5 l-40 -19 0
189 0 189 700 0 700 0 82 -86z m1209 -438 c87 -60 183 -59 274 4 53 36 81 38
125 5 91 -67 183 -71 281 -10 31 19 67 35 78 35 12 0 44 -15 72 -34 87 -60
187 -59 273 4 22 17 52 30 66 30 14 0 44 -13 66 -30 86 -63 186 -64 273 -4 28
19 60 34 72 34 11 0 48 -16 80 -36 97 -60 188 -56 279 11 45 33 65 32 133 -11
l57 -37 0 -882 0 -882 -142 -6 c-79 -4 -603 -7 -1165 -7 l-1023 0 0 893 1 892
52 32 c29 18 62 32 75 33 12 0 45 -15 73 -34z"/>
<path d="M4330 1974 c-86 -37 -143 -125 -143 -219 0 -179 185 -290 344 -207
170 88 169 329 0 415 -63 31 -144 36 -201 11z m154 -165 c14 -17 26 -41 26
-54 0 -39 -46 -85 -85 -85 -80 0 -119 97 -60 147 39 34 87 31 119 -8z"/>
<path d="M3029 1942 c-169 -88 -169 -326 0 -414 160 -83 345 28 345 207 0 178
-186 290 -345 207z m167 -146 c60 -51 20 -146 -61 -146 -25 0 -40 8 -59 31
-34 40 -33 74 3 110 37 36 79 38 117 5z"/>
<path d="M3697 1636 c-70 -65 -29 -176 65 -176 56 0 98 43 98 100 0 87 -101
133 -163 76z"/>
<path d="M3805 1199 c-45 -12 -115 -77 -136 -123 -25 -54 -24 -148 0 -201 39
-84 120 -135 216 -135 97 0 171 47 211 135 88 188 -88 384 -291 324z m126
-152 c44 -34 50 -92 14 -131 -52 -56 -145 -19 -145 59 0 66 81 111 131 72z"/>
<path d="M3080 956 c-25 -8 -40 -22 -53 -49 -22 -44 -17 -74 17 -114 20 -23
32 -28 69 -28 80 0 128 75 93 143 -25 49 -71 66 -126 48z"/>
<path d="M4484 946 c-82 -36 -86 -144 -7 -185 66 -34 143 18 143 96 0 38 -25
72 -66 89 -39 16 -32 16 -70 0z"/>
<path d="M2507 4394 c-85 -84 -188 -329 -203 -481 -4 -35 -10 -63 -13 -63 -3
0 -19 9 -36 21 -100 67 -282 136 -390 146 -55 5 -62 3 -84 -21 -24 -26 -25
-28 -12 -102 24 -146 83 -283 171 -399 28 -37 50 -68 48 -69 -2 -2 -32 -13
-68 -25 -36 -13 -94 -39 -130 -59 -157 -86 -160 -142 -13 -231 72 -44 205 -91
278 -98 l61 -5 0 -90 c0 -86 1 -91 27 -114 19 -16 40 -24 65 -24 60 0 163 29
219 60 29 17 55 30 58 30 3 0 5 -28 5 -63 0 -53 4 -67 23 -85 30 -28 68 -28
95 1 18 19 22 35 22 85 0 34 2 62 5 62 3 0 29 -13 58 -30 56 -31 159 -60 219
-60 25 0 46 8 65 24 26 23 27 28 27 114 l0 90 61 5 c110 10 284 86 358 155 36
34 36 75 0 111 -36 36 -141 93 -223 122 -36 12 -67 24 -69 26 -3 2 7 16 21 31
91 98 172 277 199 436 13 74 12 76 -12 102 -22 24 -29 26 -84 21 -108 -10
-290 -79 -390 -146 -40 -27 -45 -26 -45 8 0 94 -65 291 -135 411 -56 96 -89
130 -125 130 -16 0 -38 -11 -53 -26z m96 -262 c60 -132 71 -188 72 -365 0
-145 2 -160 19 -173 41 -29 70 -18 142 57 91 93 211 166 327 200 34 10 35 0 2
-87 -48 -126 -131 -240 -228 -309 -59 -42 -79 -76 -66 -111 14 -40 48 -54 125
-54 70 0 170 -24 223 -54 l24 -13 -22 -13 c-68 -36 -140 -52 -245 -56 -155 -5
-161 -12 -125 -161 7 -29 10 -55 8 -58 -11 -10 -98 27 -134 58 -20 18 -53 66
-74 107 -65 130 -118 132 -178 8 -40 -84 -96 -140 -158 -162 -27 -9 -51 -14
-54 -11 -2 3 1 29 8 58 36 149 30 156 -125 161 -105 4 -177 20 -245 56 l-22
13 24 13 c53 30 153 54 223 54 77 0 111 14 125 54 14 35 -7 69 -71 116 -100
74 -186 194 -228 316 -27 77 -26 84 8 74 123 -36 232 -103 326 -199 72 -75
101 -86 142 -57 17 13 19 28 20 178 1 135 5 175 22 231 24 78 81 207 92 207 4
0 23 -35 43 -78z"/>
<path d="M1836 1970 c-57 -29 -85 -58 -112 -115 -60 -126 7 -285 135 -324 161
-48 312 61 312 224 0 93 -53 177 -136 216 -54 25 -147 24 -199 -1z m159 -155
c53 -52 16 -145 -58 -145 -55 0 -96 52 -83 105 16 64 96 86 141 40z"/>
<path d="M564 1956 c-47 -21 -105 -77 -125 -121 -25 -53 -24 -147 0 -200 39
-84 120 -135 216 -135 97 0 171 47 211 135 58 123 1 268 -123 320 -44 18 -138
19 -179 1z m151 -162 c52 -56 15 -144 -60 -144 -49 0 -85 36 -85 85 0 78 93
115 145 59z"/>
<path d="M1221 1644 c-13 -9 -29 -32 -37 -50 -39 -93 85 -178 159 -110 48 44
48 108 0 152 -31 29 -87 32 -122 8z"/>
<path d="M1289 1182 c-160 -83 -170 -308 -19 -408 44 -29 120 -42 183 -30 57
11 121 60 152 118 112 205 -109 428 -316 320z m166 -147 c55 -54 19 -145 -58
-145 -36 1 -58 14 -75 47 -19 35 -14 63 17 94 38 37 82 39 116 4z"/>
<path d="M594 955 c-102 -43 -73 -195 37 -195 85 0 130 106 72 169 -34 36 -68
44 -109 26z"/>
<path d="M2020 953 c-64 -18 -98 -72 -80 -127 15 -45 41 -67 87 -73 77 -10
135 76 99 145 -9 17 -21 34 -26 37 -19 12 -65 22 -80 18z"/>
</g>
</svg>
